<?xml version="1.0" standalone="no"?>
<!DOCTYPE svg PUBLIC "-//W3C//DTD SVG 20010904//EN"
 "http://www.w3.org/TR/2001/REC-SVG-20010904/DTD/svg10.dtd">
<svg version="1.0" xmlns="http://www.w3.org/2000/svg"
 width="500.000000pt" height="500.000000pt" viewBox="0 0 500.000000 500.000000"
 preserveAspectRatio="xMidYMid meet">

<g transform="translate(0.000000,500.000000) scale(0.100000,-0.100000)"
fill="#000000" stroke="none">
<path d="M930 4989 c-25 -5 -74 -14 -110 -20 -194 -35 -407 -157 -542 -311
-143 -163 -209 -301 -255 -528 -16 -78 -17 -216 -21 -1595 -2 -1074 0 -1530 8
-1580 47 -297 129 -474 299 -646 163 -163 327 -241 627 -298 76 -14 3043 -16
3107 -2 23 5 82 17 130 26 384 71 705 385 786 770 12 55 26 119 31 143 6 26
10 592 10 1520 0 1540 1 1517 -40 1733 -21 112 -73 235 -147 346 -48 74 -181
208 -258 260 -126 85 -295 153 -435 176 -82 13 -3125 19 -3190 6z m1403 -1020
c38 -10 114 -76 150 -129 l17 -25 18 25 c33 48 86 101 113 115 166 87 375 -36
373 -220 0 -70 -9 -89 -154 -335 -53 -91 -152 -262 -220 -380 -67 -118 -159
-278 -205 -355 -170 -289 -275 -475 -275 -485 0 -6 86 -10 248 -10 287 0 253
12 327 -120 26 -47 86 -149 132 -227 47 -78 82 -147 78 -152 -4 -8 -295 -11
-949 -11 -1042 0 -994 -3 -1072 64 -141 120 -111 343 55 420 43 19 66 21 314
24 l268 3 23 37 c24 38 90 153 376 652 90 157 183 316 207 354 23 38 43 76 43
84 0 8 -36 76 -79 151 -44 75 -90 159 -102 186 -61 135 7 285 153 337 54 19
88 18 161 -3z m672 -1034 c50 -86 169 -292 266 -458 l175 -302 270 -5 c297 -6
316 -9 382 -73 99 -95 106 -240 17 -345 -57 -66 -110 -85 -247 -90 -65 -3
-118 -8 -118 -12 0 -5 33 -64 73 -132 93 -156 102 -180 101 -254 -2 -92 -56
-179 -137 -221 -42 -21 -142 -28 -197 -13 -81 22 -129 86 -335 455 -43 77
-106 187 -140 245 -34 58 -118 204 -187 325 -69 121 -169 294 -222 383 -53 90
-96 171 -96 180 0 16 129 244 228 405 38 61 58 85 66 78 6 -5 52 -80 101 -166z
m-1279 -1458 c5 -13 -127 -256 -184 -339 -57 -83 -124 -118 -222 -118 -138 2
-244 110 -244 250 0 68 18 118 71 188 l24 32 275 0 c215 0 276 -3 280 -13z"/>
</g>
</svg>
